<?xml version="1.0" encoding="UTF-8" standalone="no"?>
<!-- Created with Inkscape (http://www.inkscape.org/) -->

<svg
   xmlns:dc="http://purl.org/dc/elements/1.1/"
   xmlns:cc="http://creativecommons.org/ns#"
   xmlns:rdf="http://www.w3.org/1999/02/22-rdf-syntax-ns#"
   xmlns:svg="http://www.w3.org/2000/svg"
   xmlns="http://www.w3.org/2000/svg"
   xmlns:xlink="http://www.w3.org/1999/xlink"
   xmlns:sodipodi="http://sodipodi.sourceforge.net/DTD/sodipodi-0.dtd"
   xmlns:inkscape="http://www.inkscape.org/namespaces/inkscape"
   width="210mm"
   height="297mm"
   viewBox="0 0 210 297"
   version="1.1"
   id="svg8"
   inkscape:version="0.92.0 r15299"
   sodipodi:docname="nicknet logo sphere.svg"
   inkscape:export-filename="C:\Users\Nitish\Desktop\nicknet.png"
   inkscape:export-xdpi="500"
   inkscape:export-ydpi="500">
  <defs
     id="defs2">
    <linearGradient
       inkscape:collect="always"
       id="linearGradient4656">
      <stop
         style="stop-color:#ffffff;stop-opacity:1"
         offset="0"
         id="stop4652" />
      <stop
         id="stop4660"
         offset="0.51154321"
         style="stop-color:#222222;stop-opacity:0.99215686" />
      <stop
         style="stop-color:#ffffff;stop-opacity:0.98823529"
         offset="1"
         id="stop4654" />
    </linearGradient>
    <linearGradient
       inkscape:collect="always"
       id="linearGradient4637">
      <stop
         style="stop-color:#d5f4ff;stop-opacity:1"
         offset="0"
         id="stop4633" />
      <stop
         id="stop4641"
         offset="0.47658885"
         style="stop-color:#0a495f;stop-opacity:1" />
      <stop
         style="stop-color:#2dc9ff;stop-opacity:1"
         offset="1"
         id="stop4635" />
    </linearGradient>
    <linearGradient
       inkscape:collect="always"
       id="linearGradient4527">
      <stop
         style="stop-color:#b0ffff;stop-opacity:1"
         offset="0"
         id="stop4523" />
      <stop
         id="stop4541"
         offset="0.2243882"
         style="stop-color:#00ffff;stop-opacity:0.47058824;" />
      <stop
         style="stop-color:#0031a4;stop-opacity:1"
         offset="1"
         id="stop4525" />
    </linearGradient>
    <linearGradient
       inkscape:collect="always"
       id="linearGradient4515">
      <stop
         style="stop-color:#ffffff;stop-opacity:1"
         offset="0"
         id="stop4511" />
      <stop
         id="stop4521"
         offset="0.32479128"
         style="stop-color:#c5c5c5;stop-opacity:1" />
      <stop
         id="stop4519"
         offset="0.65412307"
         style="stop-color:#5e5e5e;stop-opacity:1" />
      <stop
         style="stop-color:#090000;stop-opacity:1"
         offset="1"
         id="stop4513" />
    </linearGradient>
    <radialGradient
       inkscape:collect="always"
       xlink:href="#linearGradient4515"
       id="radialGradient4517"
       cx="54.879929"
       cy="-614.04297"
       fx="54.879929"
       fy="-614.04297"
       r="117.52733"
       gradientTransform="matrix(1.0614807,0,0,1.0982461,63.522096,799.70243)"
       gradientUnits="userSpaceOnUse" />
    <radialGradient
       inkscape:collect="always"
       xlink:href="#linearGradient4527"
       id="radialGradient4529"
       cx="57.455666"
       cy="-599.88678"
       fx="57.455666"
       fy="-599.88678"
       r="71.42894"
       gradientTransform="matrix(1,0,0,0.91208784,67.733333,688.6789)"
       gradientUnits="userSpaceOnUse" />
    <linearGradient
       inkscape:collect="always"
       xlink:href="#linearGradient4637"
       id="linearGradient4639"
       x1="47.039436"
       y1="-698.84619"
       x2="47.039436"
       y2="-494.1178"
       gradientUnits="userSpaceOnUse"
       gradientTransform="translate(67.733333,740.83333)" />
    <linearGradient
       inkscape:collect="always"
       xlink:href="#linearGradient4656"
       id="linearGradient4658"
       x1="-152.64453"
       y1="-2240.6982"
       x2="489.8125"
       y2="-2240.6982"
       gradientUnits="userSpaceOnUse"
       gradientTransform="matrix(0.26458333,0,0,0.26458333,67.733333,740.83333)" />
  </defs>
  <sodipodi:namedview
     id="base"
     pagecolor="#ffffff"
     bordercolor="#666666"
     borderopacity="1.0"
     inkscape:pageopacity="0.0"
     inkscape:pageshadow="2"
     inkscape:zoom="0.35355339"
     inkscape:cx="22.596215"
     inkscape:cy="719.11952"
     inkscape:document-units="mm"
     inkscape:current-layer="layer1"
     showgrid="false"
     showborder="true"
     showguides="true"
     inkscape:guide-bbox="true"
     inkscape:window-width="1366"
     inkscape:window-height="745"
     inkscape:window-x="-8"
     inkscape:window-y="-8"
     inkscape:window-maximized="1"
     inkscape:object-nodes="true"
     inkscape:snap-nodes="false"
     inkscape:snap-others="false"
     inkscape:snap-global="false">
    <sodipodi:guide
       position="1.5119048,926.79764"
       orientation="0,1"
       id="guide4503"
       inkscape:locked="false" />
    <sodipodi:guide
       position="1.5119048,926.79764"
       orientation="1,0"
       id="guide4505"
       inkscape:locked="false" />
  </sodipodi:namedview>
  <metadata
     id="metadata5">
    <rdf:RDF>
      <cc:Work
         rdf:about="">
        <dc:format>image/svg+xml</dc:format>
        <dc:type
           rdf:resource="http://purl.org/dc/dcmitype/StillImage" />
        <dc:title></dc:title>
      </cc:Work>
    </rdf:RDF>
  </metadata>
  <g
     inkscape:label="Layer 1"
     inkscape:groupmode="layer"
     id="layer1"
     style="opacity:1">
    <ellipse
       style="opacity:0.95999995;fill:url(#radialGradient4529);fill-opacity:1;stroke-width:0.27472669"
       id="path4497"
       cx="112.33781"
       cy="147.5771"
       rx="71.42894"
       ry="65.149467"
       inkscape:export-filename="C:\Users\Nitish\Desktop\nicknet.png"
       inkscape:export-xdpi="800"
       inkscape:export-ydpi="800" />
    <path
       style="opacity:0.39599998;fill:#000000;fill-opacity:0.52222224;stroke-width:0.4011825"
       d="m 134.6992,88.980402 c 6.2244,12.782458 10.43822,26.831858 11.78509,39.294778 0.44876,4.15248 0.45215,10.49069 0.007,13.79748 -1.98831,14.78466 -10.72051,19.16606 -22.08037,11.07912 -5.48468,-3.90446 -11.7796,-11.09384 -16.74404,-19.12263 -3.92624,-6.34975 -6.82857,-12.14965 -9.789319,-19.56405 -1.080809,-2.70661 -2.119885,-5.36816 -2.309078,-5.91473 -0.189201,-0.54659 -0.804549,-2.48146 -1.367547,-4.29967 C 92.60186,99.085092 91.407461,94.085922 90.617799,89.373802 75.891527,95.398812 63.604703,107.25347 56.701203,123.0315 c -2.266473,5.18005 -5.031995,18.17584 -5.067835,23.81554 -0.165631,26.06257 14.179636,49.13182 36.903745,59.34667 1.213418,0.54544 2.439051,1.07762 3.387097,1.47677 -1.344945,-2.77585 -2.613967,-5.67776 -3.893457,-8.8819 -1.080808,-2.70663 -2.11983,-5.36843 -2.309025,-5.91499 -0.189196,-0.54661 -0.804869,-2.48126 -1.367864,-4.29948 -6.38678,-20.62638 -6.31368,-38.59964 0.187968,-46.23696 1.406902,-1.65265 5.700787,-3.38537 7.868744,-3.17511 0.472217,0.0458 0.950053,0.11926 1.433374,0.2189 9.82717,2.02786 21.82304,15.07529 30.99054,33.88675 5.32017,10.91686 9.17199,22.7592 11.0254,33.75033 7.79132,-3.29005 15.28342,-8.36445 21.1327,-14.47136 17.47874,-18.24861 22.41396,-45.77076 12.47952,-69.59273 -2.22196,-5.32812 -7.30887,-13.39016 -11.07373,-17.54994 -6.69515,-7.397438 -14.81116,-12.974328 -23.69922,-16.423588 z"
       id="path4643"
       inkscape:connector-curvature="0"
       inkscape:export-filename="C:\Users\Nitish\Desktop\nicknet.png"
       inkscape:export-xdpi="800"
       inkscape:export-ydpi="800" />
    <path
       style="opacity:1;fill:url(#linearGradient4639);fill-opacity:1;stroke-width:0.4206894"
       d="m 154.75224,37.397252 -18.33118,48.86473 c 6.62448,13.20684 11.10894,27.722378 12.54239,40.599068 0.4776,4.29035 0.48157,10.83889 0.008,14.25546 -2.11611,15.27553 -11.40983,19.80279 -23.49986,11.44735 -5.83722,-4.03407 -12.53657,-11.46209 -17.8201,-19.75744 -4.17861,-6.56058 -7.26743,-12.55318 -10.418487,-20.21374 -1.15028,-2.79649 -2.256377,-5.54657 -2.457731,-6.11127 -0.201362,-0.56472 -0.856023,-2.56405 -1.455208,-4.44262 -1.702286,-5.337088 -2.97382,-10.502078 -3.814238,-15.370648 l -19.056718,-48.54069 -10.496515,25.77568 1.60352,27.79625 9.158613,6.41096 c -7.212264,6.257608 -13.167707,14.152318 -17.305404,23.332938 -2.412153,5.35205 -5.355328,18.77931 -5.39347,24.60625 -0.0064,0.98396 0.01,1.96316 0.04444,2.93833 H 36.433395 l -5.345408,11.13213 -3.741891,25.12354 4.276225,22.98517 6.948929,11.22514 11.225154,15.50191 11.760007,12.82867 11.391551,9.97251 17.948775,-48.8647 c -1.431394,-2.86801 -2.7822,-5.86619 -4.143934,-9.17671 -1.150276,-2.79648 -2.255856,-5.54654 -2.457214,-6.11126 -0.201356,-0.56473 -0.856541,-2.56352 -1.455725,-4.44209 -6.797299,-21.31121 -6.719564,-39.88141 0.199988,-47.77229 1.497333,-1.70752 6.067376,-3.49766 8.374683,-3.28041 0.50257,0.0473 1.011101,0.12337 1.525488,0.22632 10.458827,2.09518 23.225727,15.57584 32.982487,35.01184 5.66214,11.27929 9.76162,23.51468 11.73416,34.87073 l 19.31562,48.32728 10.42314,-17.848 v -20.84731 l -14.22704,-18.49501 c 2.49285,-1.88404 4.84065,-3.92179 6.9789,-6.08901 12.07399,-12.23772 18.52115,-28.51206 18.67018,-45.15747 l 0.8723,0.87902 16.57056,-11.31816 1.06919,-31.53815 -14.43272,-33.141118 -15.50137,-20.84729 z"
       id="path4494"
       inkscape:connector-curvature="0"
       inkscape:export-filename="C:\Users\Nitish\Desktop\nicknet.png"
       inkscape:export-xdpi="800"
       inkscape:export-ydpi="800" />
    <path
       style="opacity:1;fill:url(#linearGradient4658);fill-opacity:1;stroke-width:0.71753591"
       d="m 70.934688,39.363499 c -0.411902,0.196373 -0.822453,0.395763 -1.231966,0.597905 l -9.749792,23.941669 1.603519,27.796252 9.158614,6.41096 C 63.5028,104.36792 57.547357,112.26261 53.40966,121.44323 c -2.412153,5.35207 -5.355327,18.77933 -5.393469,24.60625 -0.0064,0.98398 0.01,1.96315 0.04444,2.93833 H 36.433435 l -5.345409,11.13213 -3.741891,25.12354 4.276225,22.98517 6.948929,11.22513 11.225155,15.50191 11.760005,12.82867 7.965922,6.97373 c 0.172848,0.0849 0.343866,0.17285 0.517281,0.25683 1.138037,0.55123 2.263152,1.08469 3.33313,1.58544 l 0.908989,-2.47529 c -1.739014,-4.05445 -3.421532,-8.29005 -5.114417,-12.85814 -1.862234,-5.0251 -3.652586,-9.96698 -3.978568,-10.98177 -0.325986,-1.01481 -1.386921,-4.60674 -2.356962,-7.98245 -11.004433,-38.29487 -10.878339,-71.66393 0.324011,-85.84332 2.424095,-3.06832 9.822434,-6.28563 13.557828,-5.89526 0.813631,0.0851 1.636855,0.22169 2.469617,0.40669 4.6682,1.03799 9.620802,3.63416 14.676624,7.57783 10.280316,2.67369 22.590106,15.9291 32.062636,34.79892 4.91785,9.7966 8.65488,20.31407 10.84534,30.35059 2.68138,6.6683 5.08459,13.4597 7.18199,20.26492 l 12.14603,30.38885 c 1.05184,-0.54166 2.09891,-1.10205 3.13986,-1.68259 l 8.15971,-13.97175 v -20.84731 l -14.22704,-18.49499 c 2.49284,-1.88404 4.84065,-3.92184 6.9789,-6.08904 12.07399,-12.23772 18.52115,-28.51205 18.67018,-45.15747 l 0.8723,0.87903 16.57056,-11.31816 1.06919,-31.53812 -14.43272,-33.141157 -15.50137,-20.847288 -9.06922,-10.577142 c -1.4252,-0.764381 -2.86451,-1.494181 -4.31756,-2.186437 l -1.65313,4.40645 c 9.19791,21.963142 15.41295,45.486478 17.52709,66.565964 0.77322,7.70951 0.77927,19.47714 0.0129,25.61654 -3.42586,27.44914 -18.47165,35.58346 -38.04471,20.56929 -0.52345,-0.40154 -1.05145,-0.82479 -1.58284,-1.26299 -1.539,-0.66644 -3.14106,-1.56713 -4.79609,-2.71095 -5.83722,-4.03405 -12.53657,-11.46209 -17.8201,-19.75744 -4.17861,-6.56059 -7.26743,-12.55319 -10.41849,-20.21375 -1.150279,-2.79648 -2.256377,-5.54656 -2.45773,-6.11126 -0.174313,-0.48885 -0.695914,-2.08346 -1.219564,-3.71346 C 90.971318,97.138761 88.562806,91.266705 86.13376,84.712155 84.271522,79.687056 82.481173,74.745672 82.155192,73.730915 81.8292,72.716106 80.769309,69.12362 79.799263,65.747933 78.690524,61.889568 77.696758,58.082584 76.813916,54.338809 Z"
       id="path4645"
       inkscape:connector-curvature="0"
       inkscape:export-filename="C:\Users\Nitish\Desktop\nicknet.png"
       inkscape:export-xdpi="800"
       inkscape:export-ydpi="800" />
    <path
       inkscape:connector-curvature="0"
       id="path4565"
       d="m 153.67141,37.397292 c 11.90378,23.73187 19.96244,49.81594 22.53825,72.954548 0.85822,7.70949 0.86471,19.47699 0.0142,25.61637 -3.80251,27.44915 -20.50231,35.58364 -42.22733,20.56945 -10.48913,-7.249 -22.52776,-20.59679 -32.02194,-35.50301 -7.508704,-11.78894 -13.059229,-22.556988 -18.721476,-36.322558 -2.066981,-5.02508 -4.054149,-9.9665 -4.41597,-10.98126 -0.361834,-1.01479 -1.53865,-4.60709 -2.615347,-7.98277 -3.0589,-9.59043 -5.343116,-18.87189 -6.853296,-27.62039 -28.163084,11.18602 -51.660875,33.19534 -64.8633918,62.488768 -4.33449001,9.61726 -9.62338,33.74521 -9.69192,44.21587 -0.31676,48.38766 27.1176758,91.21797 70.5761318,110.18283 2.320584,1.01266 4.664531,2.00069 6.477611,2.74175 -2.572123,-5.15362 -4.999047,-10.5413 -7.445994,-16.49011 -2.066978,-5.02511 -4.054046,-9.96699 -4.415869,-10.98175 -0.361826,-1.01482 -1.539262,-4.60668 -2.615956,-7.98238 -12.214321,-38.29488 -12.074522,-71.66398 0.359478,-85.84339 2.690614,-3.06832 10.902402,-6.28529 15.048487,-5.89492 0.903086,0.0851 1.816918,0.22143 2.741239,0.40643 18.793846,3.7649 41.735213,27.98873 59.267483,62.91402 10.17451,20.2682 17.54087,42.25465 21.0854,62.66076 14.90041,-6.10831 29.22859,-15.52941 40.41499,-26.8675 33.42701,-33.88029 42.86531,-84.97784 23.86633,-129.20562 -4.24938,-9.892158 -13.97779,-24.860138 -21.17785,-32.583158 -12.80407,-13.73407 -28.32543,-24.08811 -45.32328,-30.49198 z"
       style="opacity:1;fill:url(#radialGradient4517);fill-opacity:1;stroke-width:0.75595242"
       inkscape:export-filename="C:\Users\Nitish\Desktop\nicknet.png"
       inkscape:export-xdpi="800"
       inkscape:export-ydpi="800" />
  </g>
</svg>
